<?xml version="1.0" standalone="no"?>
<!DOCTYPE svg PUBLIC "-//W3C//DTD SVG 20010904//EN"
 "http://www.w3.org/TR/2001/REC-SVG-20010904/DTD/svg10.dtd">
<svg version="1.0" xmlns="http://www.w3.org/2000/svg"
 width="225.000000pt" height="225.000000pt" viewBox="0 0 225.000000 225.000000"
 preserveAspectRatio="xMidYMid meet">

<g transform="translate(0.000000,225.000000) scale(0.100000,-0.100000)"
fill="#000000" stroke="none">
<path d="M955 2009 c-77 -16 -205 -40 -285 -55 -145 -27 -158 -30 -148 -39 12
-13 587 -155 625 -155 36 0 620 144 632 156 7 6 -18 12 -214 49 -104 20 -234
45 -289 56 -124 24 -150 23 -321 -12z"/>
<path d="M1630 1761 c0 -63 -4 -102 -11 -107 -7 -4 -9 -22 -6 -45 3 -22 -1
-63 -9 -92 -22 -84 -21 -87 36 -87 28 0 50 1 50 3 0 1 -9 35 -20 76 -14 55
-16 79 -8 94 7 14 7 27 -1 44 -6 13 -11 66 -11 118 0 57 -4 95 -10 95 -6 0
-10 -40 -10 -99z"/>
<path d="M821 1734 c9 -88 23 -114 81 -148 143 -82 369 -78 505 11 49 32 60
55 66 141 l3 64 -40 -7 c-23 -3 -96 -21 -163 -40 l-122 -35 -93 25 c-51 13
-124 33 -163 45 -38 11 -72 20 -75 20 -3 0 -3 -34 1 -76z"/>
<path d="M1412 1574 c-65 -44 -142 -67 -243 -72 -110 -5 -180 11 -267 59 -29
16 -57 27 -62 24 -19 -11 -11 -132 12 -192 31 -84 115 -166 193 -188 73 -22
172 -16 237 13 63 28 133 103 158 169 20 54 28 176 12 199 -5 7 -18 3 -40 -12z"/>
<path d="M1086 1144 c-22 -21 -20 -31 9 -58 14 -13 25 -34 25 -49 0 -15 -11
-51 -25 -81 -14 -30 -25 -61 -25 -68 0 -24 63 -158 75 -158 15 0 75 124 75
156 0 13 -9 42 -20 63 -11 22 -22 57 -26 78 -5 35 -3 41 20 56 28 19 34 45 14
65 -18 18 -103 15 -122 -4z"/>
<path d="M813 1065 c-63 -29 -141 -99 -182 -163 -37 -59 -73 -165 -69 -206 3
-30 4 -31 68 -38 36 -3 202 -9 370 -14 310 -7 702 7 726 27 18 15 -2 105 -42
187 -43 88 -118 166 -197 205 -61 29 -78 32 -107 17 -10 -6 -63 -96 -117 -200
-80 -155 -102 -190 -117 -188 -14 2 -45 53 -112 183 -91 175 -119 215 -153
215 -9 0 -40 -11 -68 -25z"/>
<path d="M433 629 c-74 -22 -115 -129 -95 -247 21 -126 83 -164 234 -143 46 7
158 15 250 18 145 5 170 9 188 25 49 46 42 46 -339 13 -220 -20 -245 -15 -277
47 -35 68 -15 185 38 222 55 39 118 -4 118 -79 0 -83 -64 -99 -94 -23 -20 48
-25 45 -37 -17 -12 -65 8 -110 53 -123 18 -5 67 -5 108 -1 41 4 158 15 260 25
102 9 191 21 198 27 17 13 15 93 -4 158 -9 30 -19 57 -22 61 -4 4 -104 14
-222 23 -118 8 -240 17 -270 19 -30 3 -69 1 -87 -5z"/>
<path d="M1562 620 c-134 -10 -245 -20 -249 -23 -3 -4 0 -26 6 -51 6 -25 11
-76 11 -115 l0 -70 33 -6 c95 -15 562 -54 570 -46 5 5 13 26 18 47 30 132 -24
267 -111 278 -19 2 -144 -4 -278 -14z"/>
<path d="M1050 576 c30 -79 31 -174 5 -278 l-7 -28 116 0 115 0 12 43 c18 61
15 204 -4 250 l-16 37 -115 0 -116 0 10 -24z"/>
<path d="M1320 305 c-29 -35 -7 -42 162 -48 89 -4 200 -11 245 -17 52 -7 96
-7 123 -1 104 23 76 29 -384 71 -138 13 -131 13 -146 -5z"/>
<path d="M1062 241 c-10 -6 -7 -12 12 -24 13 -9 29 -32 36 -52 6 -19 15 -35
19 -35 3 0 15 16 25 35 23 42 32 43 96 10 41 -21 50 -23 50 -10 0 29 -29 72
-52 79 -34 9 -171 7 -186 -3z"/>
</g>
</svg>
